<?xml version="1.0" encoding="utf-8"?>
<!-- Generator: Adobe Illustrator 26.5.1, SVG Export Plug-In . SVG Version: 6.00 Build 0)  -->
<svg version="1.1" id="Layer_1" xmlns="http://www.w3.org/2000/svg" xmlns:xlink="http://www.w3.org/1999/xlink" x="0px" y="0px"
	 viewBox="0 0 800 800" style="enable-background:new 0 0 800 800;" xml:space="preserve">
<style type="text/css">
	.st0{fill-rule:evenodd;clip-rule:evenodd;fill:#7C1D1D;}
	.st1{fill:#8E8E8E;}
</style>
<path class="st0" d="M540.6,161.3l98.8,98.9C706.5,327.3,740,360.9,732.2,397c-7.8,36.2-52.2,52.9-141,86.2l-61.5,23.1
	c-23.8,8.9-35.7,13.4-44.8,21.3c-4,3.5-7.6,7.4-10.7,11.7c-7.1,9.9-10.5,22.1-17.2,46.6c-15.3,55.8-23,83.6-41.3,94.1
	c-7.7,4.4-16.4,6.7-25.3,6.7c-21,0-41.5-20.5-82.3-61.4l-48.9-48.9l-36-36L176,493.2c-40.6-40.6-60.9-61-61-81.8
	c-0.1-9,2.3-17.9,6.8-25.8c10.4-18.1,38.1-25.7,93.4-41c24.6-6.8,36.8-10.2,46.7-17.3c4.4-3.2,8.5-6.9,12-11.1
	c7.9-9.3,12.3-21.2,21-45.2l22.3-60.8c32.9-89.8,49.3-134.7,85.6-142.7C439.3,59.8,473.1,93.6,540.6,161.3z"/>
<path class="st1" d="M110.1,725.9l149.2-149.3l-36-36L74.1,689.9c-9.9,9.9-9.9,26.1,0,36C84,735.8,100.1,735.8,110.1,725.9z"/>
</svg>
